HIERARCHY
ROOT joint_Root
{
	OFFSET 0.0 0.0 0.0
	CHANNELS 6 Xposition Yposition Zposition Zrotation Xrotation Yrotation 
	JOINT Hips
	{
		OFFSET -17.1583 93.1646 452.98
		CHANNELS 6 Xposition Yposition Zposition Zrotation Xrotation Yrotation 
		JOINT Spine
		{
			OFFSET 15.7357 0.0 0.0
			CHANNELS 6 Xposition Yposition Zposition Zrotation Xrotation Yrotation 
			JOINT Chest
			{
				OFFSET 8.98455 -0.406207 0.0
				CHANNELS 6 Xposition Yposition Zposition Zrotation Xrotation Yrotation 
				JOINT Neck
				{
					OFFSET 16.3773 0.0 0.0
					CHANNELS 6 Xposition Yposition Zposition Zrotation Xrotation Yrotation 
					JOINT Head
					{
						OFFSET 6.45672 0.0 0.0
						CHANNELS 6 Xposition Yposition Zposition Zrotation Xrotation Yrotation 
						End Site
						{
							OFFSET 0.0 0.0 0.0
						}
					}
				}
				JOINT Shoulder_L
				{
					OFFSET 12.9942 -0.242716 4.98039
					CHANNELS 6 Xposition Yposition Zposition Zrotation Xrotation Yrotation 
					JOINT UpperArm_L
					{
						OFFSET 5.34809 0.0 0.0
						CHANNELS 6 Xposition Yposition Zposition Zrotation Xrotation Yrotation 
						JOINT LowerArm_L
						{
							OFFSET 24.3286 1.87007e-05 0.0
							CHANNELS 6 Xposition Yposition Zposition Zrotation Xrotation Yrotation 
							JOINT Hand_L
							{
								OFFSET 22.2916 0.0 0.0
								CHANNELS 6 Xposition Yposition Zposition Zrotation Xrotation Yrotation 
								End Site
								{
									OFFSET 0.0 0.0 0.0
								}
							}
						}
					}
				}
				JOINT Shoulder_R
				{
					OFFSET 12.9945 -0.242716 -4.98039
					CHANNELS 6 Xposition Yposition Zposition Zrotation Xrotation Yrotation 
					JOINT UpperArm_R
					{
						OFFSET -5.34813 0.0 0.0
						CHANNELS 6 Xposition Yposition Zposition Zrotation Xrotation Yrotation 
						JOINT LowerArm_R
						{
							OFFSET -24.3289 0.000322201 0.0
							CHANNELS 6 Xposition Yposition Zposition Zrotation Xrotation Yrotation 
							JOINT Hand_R
							{
								OFFSET -22.2915 -0.000108084 0.0
								CHANNELS 6 Xposition Yposition Zposition Zrotation Xrotation Yrotation 
								End Site
								{
									OFFSET 0.0 0.0 0.0
								}
							}
						}
					}
				}
			}
		}
		JOINT UpperLeg_L
		{
			OFFSET -2.19248 -6.46944 0.0
			CHANNELS 6 Xposition Yposition Zposition Zrotation Xrotation Yrotation 
			JOINT LowerLeg_L
			{
				OFFSET 39.0811 0.0 -1.23785e-05
				CHANNELS 6 Xposition Yposition Zposition Zrotation Xrotation Yrotation 
				JOINT Foot_L
				{
					OFFSET 40.9854 0.0 -1.26872e-05
					CHANNELS 6 Xposition Yposition Zposition Zrotation Xrotation Yrotation 
					JOINT Toes_L
					{
						OFFSET 11.7543 0.0 0.0
						CHANNELS 6 Xposition Yposition Zposition Zrotation Xrotation Yrotation 
						End Site
						{
							OFFSET 0.0 0.0 0.0
						}
					}
				}
			}
		}
		JOINT UpperLeg_R
		{
			OFFSET -2.19251 6.46944 0.0
			CHANNELS 6 Xposition Yposition Zposition Zrotation Xrotation Yrotation 
			JOINT LowerLeg_R
			{
				OFFSET -39.0811 -0.00228153 -0.0401928
				CHANNELS 6 Xposition Yposition Zposition Zrotation Xrotation Yrotation 
				JOINT Foot_R
				{
					OFFSET -40.9854 0.0 0.0
					CHANNELS 6 Xposition Yposition Zposition Zrotation Xrotation Yrotation 
					JOINT Toes_R
					{
						OFFSET -11.7543 0.0 0.0
						CHANNELS 6 Xposition Yposition Zposition Zrotation Xrotation Yrotation 
						End Site
						{
							OFFSET 0.0 0.0 0.0
						}
					}
				}
			}
		}
	}
}
MOTION
Frames:	5
Frame Time:	0.0333333
0.000000 0.000000 0.000000 0.000000 0.000000 -0.000000 1.620080 92.371300 -537.484000 86.051500 4.101940 2.616310 15.735700 0.000005 -0.000001 62.529600 82.090600 -60.004300 8.984550 -0.406207 -0.000000 6.476260 -7.304010 5.464280 16.377300 -0.000001 -0.000001 2.562520 3.964420 -2.620310 6.456720 -0.000001 -0.000000 -12.739800 6.754740 0.731934 12.994200 -0.242716 4.980390 -92.446600 7.942480 -72.817900 5.348090 -0.000007 -0.000001 -54.265000 5.996760 -26.384200 24.328600 0.000019 0.000005 9.231990 49.788600 -12.022800 22.291600 -0.000001 0.000005 -4.171350 4.970350 7.943460 12.994500 -0.242716 -4.980390 88.174500 4.321660 -67.074300 -5.348130 -0.000001 -0.000004 -52.468200 -6.702370 8.314670 -24.328900 0.000322 -0.000009 0.038406 9.204040 -0.247115 -22.291500 -0.000108 -0.000004 5.621110 5.208580 2.505410 -2.192480 -6.469440 -0.000000 -173.313000 -18.931600 8.375000 39.081100 -0.000007 -0.000012 0.060861 -0.245199 13.939800 40.985400 -0.000006 -0.000013 4.349290 26.032300 -76.016900 11.754300 -0.000000 0.000003 0.001362 0.140202 -10.891100 -2.192510 6.469440 -0.000001 179.545000 -5.121740 156.696000 -39.081100 -0.002282 -0.040193 0.052577 -0.033074 56.173400 -40.985400 0.000008 0.000006 -9.780720 -7.217180 -67.256400 -11.754300 -0.000006 -0.000006 -0.001184 0.185661 -9.041790
0.000000 0.000000 0.000000 0.000000 0.000000 -0.000000 1.410740 92.660600 -536.204000 85.011600 4.321580 1.403820 15.735700 0.000005 -0.000001 59.447200 82.496800 -56.435400 8.984550 -0.406207 -0.000000 5.404590 -7.673580 6.386560 16.377300 -0.000001 -0.000001 2.990100 3.925030 -2.554320 6.456720 -0.000001 -0.000000 -12.282200 7.042620 0.423433 12.994200 -0.242716 4.980390 -92.262600 7.272530 -72.666400 5.348090 -0.000007 -0.000001 -53.209500 2.941290 -27.018100 24.328600 0.000019 0.000005 10.660900 33.226400 -18.979600 22.291600 -0.000001 0.000005 6.032880 5.066660 5.891160 12.994500 -0.242716 -4.980390 88.383200 3.715960 -66.466300 -5.348130 -0.000001 -0.000004 -49.347400 -9.785610 10.787700 -24.328900 0.000322 -0.000009 0.151948 7.271360 -1.209050 -22.291500 -0.000108 -0.000004 8.407940 5.232750 1.887320 -2.192480 -6.469440 -0.000000 -171.216000 -19.829000 9.442900 39.081100 -0.000007 -0.000012 -0.006835 0.037075 10.444300 40.985400 -0.000006 -0.000013 -1.927460 29.217300 -70.688300 11.754300 -0.000000 0.000003 0.001946 0.122934 -11.591600 -2.192510 6.469440 -0.000001 -179.440000 -3.613210 154.050000 -39.081100 -0.002282 -0.040193 0.059581 -0.041452 53.660400 -40.985400 0.000008 0.000006 -9.209170 -6.424000 -65.022500 -11.754300 -0.000006 -0.000006 -0.001331 0.187671 -8.960110
0.000000 0.000000 0.000000 0.000000 0.000000 -0.000000 1.146860 92.934300 -534.863000 84.120100 4.230520 -0.088668 15.735700 0.000005 -0.000001 56.251800 83.010600 -52.878200 8.984550 -0.406207 -0.000000 4.130240 -7.861490 7.032110 16.377300 -0.000001 -0.000001 3.284200 3.966920 -2.236750 6.456720 -0.000001 -0.000000 -11.842600 7.305910 0.311837 12.994200 -0.242716 4.980390 -92.180100 6.941560 -72.516300 5.348090 -0.000007 -0.000001 -53.064900 -1.476950 -26.640900 24.328600 0.000019 0.000005 9.371630 18.282600 -27.775100 22.291600 -0.000001 0.000005 5.425330 5.100410 5.107430 12.994500 -0.242716 -4.980390 88.706600 2.926370 -66.142100 -5.348130 -0.000001 -0.000004 -46.637200 -13.790000 12.848200 -24.328900 0.000322 -0.000009 0.137302 5.000020 -1.587730 -22.291500 -0.000108 -0.000004 9.293320 5.255250 1.293660 -2.192480 -6.469440 -0.000000 -169.843000 -20.405400 10.261400 39.081100 -0.000007 -0.000012 -0.005502 0.044090 7.112160 40.985400 -0.000006 -0.000013 -5.692760 30.807600 -66.617000 11.754300 -0.000000 0.000003 0.002132 0.115480 -11.893900 -2.192510 6.469440 -0.000001 -178.350000 -2.365980 151.846000 -39.081100 -0.002282 -0.040193 0.060786 -0.049130 49.506500 -40.985400 0.000008 0.000006 -9.362940 -5.435150 -64.274600 -11.754300 -0.000006 -0.000006 -0.001255 0.186633 -9.002310
0.000000 0.000000 0.000000 0.000000 0.000000 -0.000000 0.938925 93.139300 -533.358000 83.645700 3.948160 -1.247870 15.735700 0.000005 -0.000001 54.041200 83.398900 -50.489200 8.984550 -0.406207 -0.000000 3.201500 -7.885660 7.326280 16.377300 -0.000001 -0.000001 3.261260 3.997190 -1.948890 6.456720 -0.000001 -0.000000 -11.580500 7.465420 0.513862 12.994200 -0.242716 4.980390 -92.093700 6.584050 -72.315800 5.348090 -0.000007 -0.000001 -53.945800 -5.608250 -26.681500 24.328600 0.000019 0.000005 7.672370 10.405300 -36.734800 22.291600 -0.000001 0.000005 2.433390 5.042030 6.418210 12.994500 -0.242716 -4.980390 89.052300 2.154180 -66.247300 -5.348130 -0.000001 -0.000004 -44.688200 -16.812900 14.780300 -24.328900 0.000322 -0.000009 0.123853 3.520950 -2.032890 -22.291500 -0.000108 -0.000004 9.380210 5.250670 1.415280 -2.192480 -6.469440 -0.000000 -169.373000 -20.160600 10.302300 39.081100 -0.000007 -0.000012 -0.000909 0.008279 6.257540 40.985400 -0.000006 -0.000013 -5.971430 30.539900 -65.120400 11.754300 -0.000000 0.000003 0.002400 0.099502 -12.541700 -2.192510 6.469440 -0.000001 -177.388000 -0.997396 150.733000 -39.081100 -0.002282 -0.040193 0.055157 -0.053874 43.924700 -40.985400 0.000008 0.000006 -9.812450 -4.681650 -64.019300 -11.754300 -0.000006 -0.000006 -0.001088 0.184313 -9.096580
0.000000 0.000000 0.000000 0.000000 0.000000 -0.000000 0.729230 93.205800 -531.681000 83.356200 3.739210 -2.094150 15.735700 0.000005 -0.000001 52.546800 83.659200 -48.876200 8.984550 -0.406207 -0.000000 2.586870 -7.871440 7.521150 16.377300 -0.000001 -0.000001 3.017890 3.985920 -1.794170 6.456720 -0.000001 -0.000000 -11.572700 7.481510 0.776993 12.994200 -0.242716 4.980390 -91.965000 6.105210 -72.121000 5.348090 -0.000007 -0.000001 -54.852200 -7.687300 -26.791700 24.328600 0.000019 0.000005 8.769660 8.661590 -45.682100 22.291600 -0.000001 0.000005 2.416460 5.014600 7.008230 12.994500 -0.242716 -4.980390 89.365000 1.458470 -66.469600 -5.348130 -0.000001 -0.000004 -43.494100 -18.328400 16.125600 -24.328900 0.000322 -0.000009 0.120102 3.321990 -2.089560 -22.291500 -0.000108 -0.000004 8.799050 5.246990 1.512280 -2.192480 -6.469440 -0.000000 -169.274000 -18.845500 10.385900 39.081100 -0.000007 -0.000012 0.001541 -0.014437 6.095950 40.985400 -0.000006 -0.000013 -5.707710 29.060100 -64.472300 11.754300 -0.000000 0.000003 0.002487 0.082626 -13.225900 -2.192510 6.469440 -0.000001 -176.226000 0.794117 150.526000 -39.081100 -0.002282 -0.040193 0.045543 -0.055150 37.460700 -40.985400 0.000008 0.000006 -10.029400 -3.866340 -63.933100 -11.754300 -0.000006 -0.000006 -0.000994 0.182986 -9.150510
